%TF.GenerationSoftware,KiCad,Pcbnew,7.0.10-7.0.10~ubuntu22.04.1*%
%TF.CreationDate,2024-04-19T08:37:49-04:00*%
%TF.ProjectId,bosch_pcb,626f7363-685f-4706-9362-2e6b69636164,rev?*%
%TF.SameCoordinates,Original*%
%TF.FileFunction,Soldermask,Top*%
%TF.FilePolarity,Negative*%
%FSLAX46Y46*%
G04 Gerber Fmt 4.6, Leading zero omitted, Abs format (unit mm)*
G04 Created by KiCad (PCBNEW 7.0.10-7.0.10~ubuntu22.04.1) date 2024-04-19 08:37:49*
%MOMM*%
%LPD*%
G01*
G04 APERTURE LIST*
G04 APERTURE END LIST*
G36*
X120006061Y-80500597D02*
G01*
X120182934Y-80518017D01*
X120206775Y-80522759D01*
X120370998Y-80572575D01*
X120393456Y-80581878D01*
X120544798Y-80662772D01*
X120565010Y-80676277D01*
X120697666Y-80785145D01*
X120714854Y-80802333D01*
X120823722Y-80934989D01*
X120837227Y-80955201D01*
X120918121Y-81106543D01*
X120927424Y-81129001D01*
X120977240Y-81293224D01*
X120981982Y-81317065D01*
X120999403Y-81493938D01*
X121000000Y-81506092D01*
X121000000Y-88493907D01*
X120999403Y-88506061D01*
X120981982Y-88682934D01*
X120977240Y-88706775D01*
X120927424Y-88870998D01*
X120918121Y-88893456D01*
X120837227Y-89044798D01*
X120823722Y-89065010D01*
X120714854Y-89197666D01*
X120697666Y-89214854D01*
X120565010Y-89323722D01*
X120544798Y-89337227D01*
X120393456Y-89418121D01*
X120370998Y-89427424D01*
X120206775Y-89477240D01*
X120182934Y-89481982D01*
X120006061Y-89499403D01*
X119993907Y-89500000D01*
X111006093Y-89500000D01*
X110993939Y-89499403D01*
X110817065Y-89481982D01*
X110793224Y-89477240D01*
X110629001Y-89427424D01*
X110606543Y-89418121D01*
X110455201Y-89337227D01*
X110434989Y-89323722D01*
X110302333Y-89214854D01*
X110285145Y-89197666D01*
X110176277Y-89065010D01*
X110162772Y-89044798D01*
X110081878Y-88893456D01*
X110072575Y-88870998D01*
X110022759Y-88706775D01*
X110018017Y-88682934D01*
X110000597Y-88506061D01*
X110000000Y-88493907D01*
X110000000Y-81506092D01*
X110000597Y-81493938D01*
X110018017Y-81317065D01*
X110022759Y-81293224D01*
X110072575Y-81129001D01*
X110081878Y-81106543D01*
X110162772Y-80955201D01*
X110176277Y-80934989D01*
X110285145Y-80802333D01*
X110302333Y-80785145D01*
X110434989Y-80676277D01*
X110455201Y-80662772D01*
X110606543Y-80581878D01*
X110629001Y-80572575D01*
X110793224Y-80522759D01*
X110817065Y-80518017D01*
X110993939Y-80500597D01*
X111006093Y-80500000D01*
X119993907Y-80500000D01*
X120006061Y-80500597D01*
G37*
G36*
X153006061Y-80500597D02*
G01*
X153182934Y-80518017D01*
X153206775Y-80522759D01*
X153370998Y-80572575D01*
X153393456Y-80581878D01*
X153544798Y-80662772D01*
X153565010Y-80676277D01*
X153697666Y-80785145D01*
X153714854Y-80802333D01*
X153823722Y-80934989D01*
X153837227Y-80955201D01*
X153918121Y-81106543D01*
X153927424Y-81129001D01*
X153977240Y-81293224D01*
X153981982Y-81317065D01*
X153999403Y-81493938D01*
X154000000Y-81506092D01*
X154000000Y-88493907D01*
X153999403Y-88506061D01*
X153981982Y-88682934D01*
X153977240Y-88706775D01*
X153927424Y-88870998D01*
X153918121Y-88893456D01*
X153837227Y-89044798D01*
X153823722Y-89065010D01*
X153714854Y-89197666D01*
X153697666Y-89214854D01*
X153565010Y-89323722D01*
X153544798Y-89337227D01*
X153393456Y-89418121D01*
X153370998Y-89427424D01*
X153206775Y-89477240D01*
X153182934Y-89481982D01*
X153006061Y-89499403D01*
X152993907Y-89500000D01*
X144006093Y-89500000D01*
X143993939Y-89499403D01*
X143817065Y-89481982D01*
X143793224Y-89477240D01*
X143629001Y-89427424D01*
X143606543Y-89418121D01*
X143455201Y-89337227D01*
X143434989Y-89323722D01*
X143302333Y-89214854D01*
X143285145Y-89197666D01*
X143176277Y-89065010D01*
X143162772Y-89044798D01*
X143081878Y-88893456D01*
X143072575Y-88870998D01*
X143022759Y-88706775D01*
X143018017Y-88682934D01*
X143000597Y-88506061D01*
X143000000Y-88493907D01*
X143000000Y-81506092D01*
X143000597Y-81493938D01*
X143018017Y-81317065D01*
X143022759Y-81293224D01*
X143072575Y-81129001D01*
X143081878Y-81106543D01*
X143162772Y-80955201D01*
X143176277Y-80934989D01*
X143285145Y-80802333D01*
X143302333Y-80785145D01*
X143434989Y-80676277D01*
X143455201Y-80662772D01*
X143606543Y-80581878D01*
X143629001Y-80572575D01*
X143793224Y-80522759D01*
X143817065Y-80518017D01*
X143993939Y-80500597D01*
X144006093Y-80500000D01*
X152993907Y-80500000D01*
X153006061Y-80500597D01*
G37*
M02*
