%TF.GenerationSoftware,KiCad,Pcbnew,7.0.10-7.0.10~ubuntu22.04.1*%
%TF.CreationDate,2024-04-19T08:37:49-04:00*%
%TF.ProjectId,bosch_pcb,626f7363-685f-4706-9362-2e6b69636164,rev?*%
%TF.SameCoordinates,Original*%
%TF.FileFunction,Legend,Top*%
%TF.FilePolarity,Positive*%
%FSLAX46Y46*%
G04 Gerber Fmt 4.6, Leading zero omitted, Abs format (unit mm)*
G04 Created by KiCad (PCBNEW 7.0.10-7.0.10~ubuntu22.04.1) date 2024-04-19 08:37:49*
%MOMM*%
%LPD*%
G01*
G04 APERTURE LIST*
%ADD10C,0.150000*%
G04 APERTURE END LIST*
D10*
X122836779Y-81759819D02*
X122836779Y-81093152D01*
X122836779Y-81188390D02*
X122884398Y-81140771D01*
X122884398Y-81140771D02*
X122979636Y-81093152D01*
X122979636Y-81093152D02*
X123122493Y-81093152D01*
X123122493Y-81093152D02*
X123217731Y-81140771D01*
X123217731Y-81140771D02*
X123265350Y-81236009D01*
X123265350Y-81236009D02*
X123265350Y-81759819D01*
X123265350Y-81236009D02*
X123312969Y-81140771D01*
X123312969Y-81140771D02*
X123408207Y-81093152D01*
X123408207Y-81093152D02*
X123551064Y-81093152D01*
X123551064Y-81093152D02*
X123646303Y-81140771D01*
X123646303Y-81140771D02*
X123693922Y-81236009D01*
X123693922Y-81236009D02*
X123693922Y-81759819D01*
X124170112Y-81093152D02*
X124170112Y-81950295D01*
X124170112Y-81950295D02*
X124122493Y-82045533D01*
X124122493Y-82045533D02*
X124027255Y-82093152D01*
X124027255Y-82093152D02*
X123979636Y-82093152D01*
X124170112Y-80759819D02*
X124122493Y-80807438D01*
X124122493Y-80807438D02*
X124170112Y-80855057D01*
X124170112Y-80855057D02*
X124217731Y-80807438D01*
X124217731Y-80807438D02*
X124170112Y-80759819D01*
X124170112Y-80759819D02*
X124170112Y-80855057D01*
X124646302Y-81759819D02*
X124646302Y-80759819D01*
X124646302Y-81140771D02*
X124741540Y-81093152D01*
X124741540Y-81093152D02*
X124932016Y-81093152D01*
X124932016Y-81093152D02*
X125027254Y-81140771D01*
X125027254Y-81140771D02*
X125074873Y-81188390D01*
X125074873Y-81188390D02*
X125122492Y-81283628D01*
X125122492Y-81283628D02*
X125122492Y-81569342D01*
X125122492Y-81569342D02*
X125074873Y-81664580D01*
X125074873Y-81664580D02*
X125027254Y-81712200D01*
X125027254Y-81712200D02*
X124932016Y-81759819D01*
X124932016Y-81759819D02*
X124741540Y-81759819D01*
X124741540Y-81759819D02*
X124646302Y-81712200D01*
X125693921Y-81759819D02*
X125598683Y-81712200D01*
X125598683Y-81712200D02*
X125551064Y-81664580D01*
X125551064Y-81664580D02*
X125503445Y-81569342D01*
X125503445Y-81569342D02*
X125503445Y-81283628D01*
X125503445Y-81283628D02*
X125551064Y-81188390D01*
X125551064Y-81188390D02*
X125598683Y-81140771D01*
X125598683Y-81140771D02*
X125693921Y-81093152D01*
X125693921Y-81093152D02*
X125836778Y-81093152D01*
X125836778Y-81093152D02*
X125932016Y-81140771D01*
X125932016Y-81140771D02*
X125979635Y-81188390D01*
X125979635Y-81188390D02*
X126027254Y-81283628D01*
X126027254Y-81283628D02*
X126027254Y-81569342D01*
X126027254Y-81569342D02*
X125979635Y-81664580D01*
X125979635Y-81664580D02*
X125932016Y-81712200D01*
X125932016Y-81712200D02*
X125836778Y-81759819D01*
X125836778Y-81759819D02*
X125693921Y-81759819D01*
X126312969Y-81093152D02*
X126693921Y-81093152D01*
X126455826Y-80759819D02*
X126455826Y-81616961D01*
X126455826Y-81616961D02*
X126503445Y-81712200D01*
X126503445Y-81712200D02*
X126598683Y-81759819D01*
X126598683Y-81759819D02*
X126693921Y-81759819D01*
X126979636Y-81712200D02*
X127074874Y-81759819D01*
X127074874Y-81759819D02*
X127265350Y-81759819D01*
X127265350Y-81759819D02*
X127360588Y-81712200D01*
X127360588Y-81712200D02*
X127408207Y-81616961D01*
X127408207Y-81616961D02*
X127408207Y-81569342D01*
X127408207Y-81569342D02*
X127360588Y-81474104D01*
X127360588Y-81474104D02*
X127265350Y-81426485D01*
X127265350Y-81426485D02*
X127122493Y-81426485D01*
X127122493Y-81426485D02*
X127027255Y-81378866D01*
X127027255Y-81378866D02*
X126979636Y-81283628D01*
X126979636Y-81283628D02*
X126979636Y-81236009D01*
X126979636Y-81236009D02*
X127027255Y-81140771D01*
X127027255Y-81140771D02*
X127122493Y-81093152D01*
X127122493Y-81093152D02*
X127265350Y-81093152D01*
X127265350Y-81093152D02*
X127360588Y-81140771D01*
X128598684Y-81759819D02*
X128598684Y-80759819D01*
X128598684Y-81140771D02*
X128693922Y-81093152D01*
X128693922Y-81093152D02*
X128884398Y-81093152D01*
X128884398Y-81093152D02*
X128979636Y-81140771D01*
X128979636Y-81140771D02*
X129027255Y-81188390D01*
X129027255Y-81188390D02*
X129074874Y-81283628D01*
X129074874Y-81283628D02*
X129074874Y-81569342D01*
X129074874Y-81569342D02*
X129027255Y-81664580D01*
X129027255Y-81664580D02*
X128979636Y-81712200D01*
X128979636Y-81712200D02*
X128884398Y-81759819D01*
X128884398Y-81759819D02*
X128693922Y-81759819D01*
X128693922Y-81759819D02*
X128598684Y-81712200D01*
X129932017Y-81759819D02*
X129932017Y-81236009D01*
X129932017Y-81236009D02*
X129884398Y-81140771D01*
X129884398Y-81140771D02*
X129789160Y-81093152D01*
X129789160Y-81093152D02*
X129598684Y-81093152D01*
X129598684Y-81093152D02*
X129503446Y-81140771D01*
X129932017Y-81712200D02*
X129836779Y-81759819D01*
X129836779Y-81759819D02*
X129598684Y-81759819D01*
X129598684Y-81759819D02*
X129503446Y-81712200D01*
X129503446Y-81712200D02*
X129455827Y-81616961D01*
X129455827Y-81616961D02*
X129455827Y-81521723D01*
X129455827Y-81521723D02*
X129503446Y-81426485D01*
X129503446Y-81426485D02*
X129598684Y-81378866D01*
X129598684Y-81378866D02*
X129836779Y-81378866D01*
X129836779Y-81378866D02*
X129932017Y-81331247D01*
X130265351Y-81093152D02*
X130646303Y-81093152D01*
X130408208Y-80759819D02*
X130408208Y-81616961D01*
X130408208Y-81616961D02*
X130455827Y-81712200D01*
X130455827Y-81712200D02*
X130551065Y-81759819D01*
X130551065Y-81759819D02*
X130646303Y-81759819D01*
X130836780Y-81093152D02*
X131217732Y-81093152D01*
X130979637Y-80759819D02*
X130979637Y-81616961D01*
X130979637Y-81616961D02*
X131027256Y-81712200D01*
X131027256Y-81712200D02*
X131122494Y-81759819D01*
X131122494Y-81759819D02*
X131217732Y-81759819D01*
X131932018Y-81712200D02*
X131836780Y-81759819D01*
X131836780Y-81759819D02*
X131646304Y-81759819D01*
X131646304Y-81759819D02*
X131551066Y-81712200D01*
X131551066Y-81712200D02*
X131503447Y-81616961D01*
X131503447Y-81616961D02*
X131503447Y-81236009D01*
X131503447Y-81236009D02*
X131551066Y-81140771D01*
X131551066Y-81140771D02*
X131646304Y-81093152D01*
X131646304Y-81093152D02*
X131836780Y-81093152D01*
X131836780Y-81093152D02*
X131932018Y-81140771D01*
X131932018Y-81140771D02*
X131979637Y-81236009D01*
X131979637Y-81236009D02*
X131979637Y-81331247D01*
X131979637Y-81331247D02*
X131503447Y-81426485D01*
X132408209Y-81759819D02*
X132408209Y-81093152D01*
X132408209Y-81283628D02*
X132455828Y-81188390D01*
X132455828Y-81188390D02*
X132503447Y-81140771D01*
X132503447Y-81140771D02*
X132598685Y-81093152D01*
X132598685Y-81093152D02*
X132693923Y-81093152D01*
X132932019Y-81093152D02*
X133170114Y-81759819D01*
X133408209Y-81093152D02*
X133170114Y-81759819D01*
X133170114Y-81759819D02*
X133074876Y-81997914D01*
X133074876Y-81997914D02*
X133027257Y-82045533D01*
X133027257Y-82045533D02*
X132932019Y-82093152D01*
X134551067Y-81759819D02*
X134551067Y-81093152D01*
X134551067Y-81188390D02*
X134598686Y-81140771D01*
X134598686Y-81140771D02*
X134693924Y-81093152D01*
X134693924Y-81093152D02*
X134836781Y-81093152D01*
X134836781Y-81093152D02*
X134932019Y-81140771D01*
X134932019Y-81140771D02*
X134979638Y-81236009D01*
X134979638Y-81236009D02*
X134979638Y-81759819D01*
X134979638Y-81236009D02*
X135027257Y-81140771D01*
X135027257Y-81140771D02*
X135122495Y-81093152D01*
X135122495Y-81093152D02*
X135265352Y-81093152D01*
X135265352Y-81093152D02*
X135360591Y-81140771D01*
X135360591Y-81140771D02*
X135408210Y-81236009D01*
X135408210Y-81236009D02*
X135408210Y-81759819D01*
X136027257Y-81759819D02*
X135932019Y-81712200D01*
X135932019Y-81712200D02*
X135884400Y-81664580D01*
X135884400Y-81664580D02*
X135836781Y-81569342D01*
X135836781Y-81569342D02*
X135836781Y-81283628D01*
X135836781Y-81283628D02*
X135884400Y-81188390D01*
X135884400Y-81188390D02*
X135932019Y-81140771D01*
X135932019Y-81140771D02*
X136027257Y-81093152D01*
X136027257Y-81093152D02*
X136170114Y-81093152D01*
X136170114Y-81093152D02*
X136265352Y-81140771D01*
X136265352Y-81140771D02*
X136312971Y-81188390D01*
X136312971Y-81188390D02*
X136360590Y-81283628D01*
X136360590Y-81283628D02*
X136360590Y-81569342D01*
X136360590Y-81569342D02*
X136312971Y-81664580D01*
X136312971Y-81664580D02*
X136265352Y-81712200D01*
X136265352Y-81712200D02*
X136170114Y-81759819D01*
X136170114Y-81759819D02*
X136027257Y-81759819D01*
X137217733Y-81093152D02*
X137217733Y-81759819D01*
X136789162Y-81093152D02*
X136789162Y-81616961D01*
X136789162Y-81616961D02*
X136836781Y-81712200D01*
X136836781Y-81712200D02*
X136932019Y-81759819D01*
X136932019Y-81759819D02*
X137074876Y-81759819D01*
X137074876Y-81759819D02*
X137170114Y-81712200D01*
X137170114Y-81712200D02*
X137217733Y-81664580D01*
X137693924Y-81093152D02*
X137693924Y-81759819D01*
X137693924Y-81188390D02*
X137741543Y-81140771D01*
X137741543Y-81140771D02*
X137836781Y-81093152D01*
X137836781Y-81093152D02*
X137979638Y-81093152D01*
X137979638Y-81093152D02*
X138074876Y-81140771D01*
X138074876Y-81140771D02*
X138122495Y-81236009D01*
X138122495Y-81236009D02*
X138122495Y-81759819D01*
X138455829Y-81093152D02*
X138836781Y-81093152D01*
X138598686Y-80759819D02*
X138598686Y-81616961D01*
X138598686Y-81616961D02*
X138646305Y-81712200D01*
X138646305Y-81712200D02*
X138741543Y-81759819D01*
X138741543Y-81759819D02*
X138836781Y-81759819D01*
X122836779Y-83369819D02*
X122836779Y-82703152D01*
X122836779Y-82893628D02*
X122884398Y-82798390D01*
X122884398Y-82798390D02*
X122932017Y-82750771D01*
X122932017Y-82750771D02*
X123027255Y-82703152D01*
X123027255Y-82703152D02*
X123122493Y-82703152D01*
X123979636Y-83369819D02*
X123408208Y-83369819D01*
X123693922Y-83369819D02*
X123693922Y-82369819D01*
X123693922Y-82369819D02*
X123598684Y-82512676D01*
X123598684Y-82512676D02*
X123503446Y-82607914D01*
X123503446Y-82607914D02*
X123408208Y-82655533D01*
X125455827Y-83750771D02*
X125408208Y-83703152D01*
X125408208Y-83703152D02*
X125312970Y-83560295D01*
X125312970Y-83560295D02*
X125265351Y-83465057D01*
X125265351Y-83465057D02*
X125217732Y-83322200D01*
X125217732Y-83322200D02*
X125170113Y-83084104D01*
X125170113Y-83084104D02*
X125170113Y-82893628D01*
X125170113Y-82893628D02*
X125217732Y-82655533D01*
X125217732Y-82655533D02*
X125265351Y-82512676D01*
X125265351Y-82512676D02*
X125312970Y-82417438D01*
X125312970Y-82417438D02*
X125408208Y-82274580D01*
X125408208Y-82274580D02*
X125455827Y-82226961D01*
X126265351Y-83322200D02*
X126170113Y-83369819D01*
X126170113Y-83369819D02*
X125979637Y-83369819D01*
X125979637Y-83369819D02*
X125884399Y-83322200D01*
X125884399Y-83322200D02*
X125836780Y-83274580D01*
X125836780Y-83274580D02*
X125789161Y-83179342D01*
X125789161Y-83179342D02*
X125789161Y-82893628D01*
X125789161Y-82893628D02*
X125836780Y-82798390D01*
X125836780Y-82798390D02*
X125884399Y-82750771D01*
X125884399Y-82750771D02*
X125979637Y-82703152D01*
X125979637Y-82703152D02*
X126170113Y-82703152D01*
X126170113Y-82703152D02*
X126265351Y-82750771D01*
X126598685Y-83750771D02*
X126646304Y-83703152D01*
X126646304Y-83703152D02*
X126741542Y-83560295D01*
X126741542Y-83560295D02*
X126789161Y-83465057D01*
X126789161Y-83465057D02*
X126836780Y-83322200D01*
X126836780Y-83322200D02*
X126884399Y-83084104D01*
X126884399Y-83084104D02*
X126884399Y-82893628D01*
X126884399Y-82893628D02*
X126836780Y-82655533D01*
X126836780Y-82655533D02*
X126789161Y-82512676D01*
X126789161Y-82512676D02*
X126741542Y-82417438D01*
X126741542Y-82417438D02*
X126646304Y-82274580D01*
X126646304Y-82274580D02*
X126598685Y-82226961D01*
X128074876Y-82465057D02*
X128122495Y-82417438D01*
X128122495Y-82417438D02*
X128217733Y-82369819D01*
X128217733Y-82369819D02*
X128455828Y-82369819D01*
X128455828Y-82369819D02*
X128551066Y-82417438D01*
X128551066Y-82417438D02*
X128598685Y-82465057D01*
X128598685Y-82465057D02*
X128646304Y-82560295D01*
X128646304Y-82560295D02*
X128646304Y-82655533D01*
X128646304Y-82655533D02*
X128598685Y-82798390D01*
X128598685Y-82798390D02*
X128027257Y-83369819D01*
X128027257Y-83369819D02*
X128646304Y-83369819D01*
X129265352Y-82369819D02*
X129360590Y-82369819D01*
X129360590Y-82369819D02*
X129455828Y-82417438D01*
X129455828Y-82417438D02*
X129503447Y-82465057D01*
X129503447Y-82465057D02*
X129551066Y-82560295D01*
X129551066Y-82560295D02*
X129598685Y-82750771D01*
X129598685Y-82750771D02*
X129598685Y-82988866D01*
X129598685Y-82988866D02*
X129551066Y-83179342D01*
X129551066Y-83179342D02*
X129503447Y-83274580D01*
X129503447Y-83274580D02*
X129455828Y-83322200D01*
X129455828Y-83322200D02*
X129360590Y-83369819D01*
X129360590Y-83369819D02*
X129265352Y-83369819D01*
X129265352Y-83369819D02*
X129170114Y-83322200D01*
X129170114Y-83322200D02*
X129122495Y-83274580D01*
X129122495Y-83274580D02*
X129074876Y-83179342D01*
X129074876Y-83179342D02*
X129027257Y-82988866D01*
X129027257Y-82988866D02*
X129027257Y-82750771D01*
X129027257Y-82750771D02*
X129074876Y-82560295D01*
X129074876Y-82560295D02*
X129122495Y-82465057D01*
X129122495Y-82465057D02*
X129170114Y-82417438D01*
X129170114Y-82417438D02*
X129265352Y-82369819D01*
X129979638Y-82465057D02*
X130027257Y-82417438D01*
X130027257Y-82417438D02*
X130122495Y-82369819D01*
X130122495Y-82369819D02*
X130360590Y-82369819D01*
X130360590Y-82369819D02*
X130455828Y-82417438D01*
X130455828Y-82417438D02*
X130503447Y-82465057D01*
X130503447Y-82465057D02*
X130551066Y-82560295D01*
X130551066Y-82560295D02*
X130551066Y-82655533D01*
X130551066Y-82655533D02*
X130503447Y-82798390D01*
X130503447Y-82798390D02*
X129932019Y-83369819D01*
X129932019Y-83369819D02*
X130551066Y-83369819D01*
X131408209Y-82703152D02*
X131408209Y-83369819D01*
X131170114Y-82322200D02*
X130932019Y-83036485D01*
X130932019Y-83036485D02*
X131551066Y-83036485D01*
M02*
